<svg xmlns="http://www.w3.org/2000/svg" xmlns:xlink="http://www.w3.org/1999/xlink" width="180" zoomAndPan="magnify" viewBox="0 0 135 30.000001" height="40" preserveAspectRatio="xMidYMid meet" version="1.0"><defs><g/></defs><g fill="#6868ff" fill-opacity="1"><g transform="translate(3.661665, 20.133367)"><g><path d="M 3.800781 0 C 4.015625 0 4.136719 -0.113281 4.136719 -0.335938 L 4.136719 -4.210938 L 6.820312 -4.210938 C 9.445312 -4.210938 10.949219 -5.800781 10.949219 -8.5 C 10.949219 -10.835938 9.824219 -12.636719 6.300781 -12.636719 L 1.585938 -12.636719 C 1.367188 -12.636719 1.25 -12.519531 1.25 -12.296875 L 1.25 -0.335938 C 1.25 -0.113281 1.367188 0 1.585938 0 Z M 4.136719 -10.152344 L 5.847656 -10.152344 C 6.628906 -10.152344 8.085938 -10.144531 8.085938 -8.472656 C 8.085938 -6.703125 6.472656 -6.695312 5.847656 -6.695312 L 4.136719 -6.695312 Z M 4.136719 -10.152344 "/></g></g><g transform="translate(15.220022, 20.133367)"><g><path d="M 4.632812 -9.328125 C 3.59375 -9.328125 2.484375 -9.132812 1.464844 -8.800781 C 1.257812 -8.726562 1.175781 -8.597656 1.242188 -8.375 L 1.710938 -6.917969 C 1.777344 -6.703125 1.941406 -6.648438 2.148438 -6.730469 C 2.914062 -7.035156 3.71875 -7.222656 4.410156 -7.222656 C 5.386719 -7.222656 6.113281 -6.835938 6.113281 -5.792969 L 6.113281 -5.332031 C 5.511719 -5.503906 4.902344 -5.585938 4.328125 -5.585938 C 2.34375 -5.585938 0.75 -4.597656 0.75 -2.664062 C 0.75 -0.773438 2.238281 0.199219 3.867188 0.199219 C 4.804688 0.199219 5.808594 -0.125 6.515625 -1.054688 L 6.761719 -0.289062 C 6.8125 -0.0976562 6.941406 0 7.132812 0 L 8.40625 0 C 8.621094 0 8.746094 -0.113281 8.746094 -0.335938 L 8.746094 -5.867188 C 8.746094 -8.40625 6.859375 -9.328125 4.632812 -9.328125 Z M 4.582031 -1.628906 C 3.941406 -1.628906 3.371094 -1.957031 3.371094 -2.691406 C 3.371094 -3.519531 4.089844 -3.84375 4.984375 -3.84375 C 5.347656 -3.84375 5.726562 -3.785156 6.113281 -3.695312 L 6.113281 -3.257812 C 6.113281 -2.023438 5.230469 -1.628906 4.582031 -1.628906 Z M 4.582031 -1.628906 "/></g></g><g transform="translate(25.017889, 20.133367)"><g><path d="M 3.4375 0 C 3.652344 0 3.777344 -0.113281 3.777344 -0.335938 L 3.777344 -4.960938 C 3.777344 -6.285156 4.300781 -6.976562 5.363281 -6.976562 C 5.554688 -6.976562 5.847656 -6.941406 6.152344 -6.878906 C 6.367188 -6.828125 6.523438 -6.902344 6.574219 -7.109375 L 7 -8.777344 C 7.050781 -8.976562 6.984375 -9.132812 6.796875 -9.1875 C 6.492188 -9.28125 6.195312 -9.328125 5.949219 -9.328125 C 5.050781 -9.328125 4.089844 -8.941406 3.398438 -7.929688 L 3.109375 -8.84375 C 3.050781 -9.03125 2.929688 -9.132812 2.738281 -9.132812 L 1.472656 -9.132812 C 1.25 -9.132812 1.136719 -9.015625 1.136719 -8.792969 L 1.144531 -0.335938 C 1.144531 -0.113281 1.265625 0 1.480469 0 Z M 3.4375 0 "/></g></g><g transform="translate(32.413592, 20.133367)"><g><path d="M 4.210938 0.199219 C 4.664062 0.199219 5.148438 0.164062 5.667969 0.015625 C 5.875 -0.0429688 5.957031 -0.207031 5.898438 -0.410156 L 5.535156 -1.792969 C 5.480469 -2 5.332031 -2.074219 5.117188 -2.015625 C 4.910156 -1.957031 4.707031 -1.941406 4.542969 -1.941406 C 4.03125 -1.941406 3.695312 -2.1875 3.695312 -2.789062 L 3.695312 -12.296875 C 3.695312 -12.519531 3.578125 -12.636719 3.355469 -12.636719 L 1.40625 -12.636719 C 1.183594 -12.636719 1.070312 -12.519531 1.070312 -12.296875 L 1.070312 -2.582031 C 1.070312 -0.765625 2.34375 0.199219 4.210938 0.199219 Z M 4.210938 0.199219 "/></g></g><g transform="translate(38.731612, 20.133367)"><g><path d="M 4.632812 -9.328125 C 3.59375 -9.328125 2.484375 -9.132812 1.464844 -8.800781 C 1.257812 -8.726562 1.175781 -8.597656 1.242188 -8.375 L 1.710938 -6.917969 C 1.777344 -6.703125 1.941406 -6.648438 2.148438 -6.730469 C 2.914062 -7.035156 3.71875 -7.222656 4.410156 -7.222656 C 5.386719 -7.222656 6.113281 -6.835938 6.113281 -5.792969 L 6.113281 -5.332031 C 5.511719 -5.503906 4.902344 -5.585938 4.328125 -5.585938 C 2.34375 -5.585938 0.75 -4.597656 0.75 -2.664062 C 0.75 -0.773438 2.238281 0.199219 3.867188 0.199219 C 4.804688 0.199219 5.808594 -0.125 6.515625 -1.054688 L 6.761719 -0.289062 C 6.8125 -0.0976562 6.941406 0 7.132812 0 L 8.40625 0 C 8.621094 0 8.746094 -0.113281 8.746094 -0.335938 L 8.746094 -5.867188 C 8.746094 -8.40625 6.859375 -9.328125 4.632812 -9.328125 Z M 4.582031 -1.628906 C 3.941406 -1.628906 3.371094 -1.957031 3.371094 -2.691406 C 3.371094 -3.519531 4.089844 -3.84375 4.984375 -3.84375 C 5.347656 -3.84375 5.726562 -3.785156 6.113281 -3.695312 L 6.113281 -3.257812 C 6.113281 -2.023438 5.230469 -1.628906 4.582031 -1.628906 Z M 4.582031 -1.628906 "/></g></g><g transform="translate(48.529479, 20.133367)"><g><path d="M 7.535156 -9.132812 C 7.339844 -9.132812 7.214844 -9.066406 7.132812 -8.875 L 5.199219 -4.523438 L 3.09375 -8.875 C 3.011719 -9.050781 2.878906 -9.132812 2.699219 -9.132812 L 0.625 -9.132812 C 0.363281 -9.132812 0.269531 -8.96875 0.378906 -8.726562 L 3.867188 -1.710938 L 1.324219 3.363281 C 1.210938 3.601562 1.316406 3.769531 1.5625 3.769531 L 3.578125 3.769531 C 3.757812 3.769531 3.898438 3.675781 3.972656 3.511719 L 9.878906 -8.726562 C 9.996094 -8.96875 9.878906 -9.132812 9.640625 -9.132812 Z M 7.535156 -9.132812 "/></g></g><g transform="translate(58.796261, 20.133367)"><g><path d="M 3.957031 0.199219 C 5.742188 0.199219 7.652344 -0.476562 7.652344 -2.765625 C 7.652344 -4.292969 6.484375 -5 5.386719 -5.488281 C 4.367188 -5.949219 3.414062 -6.203125 3.414062 -6.738281 C 3.414062 -7.109375 3.742188 -7.265625 4.238281 -7.265625 C 4.769531 -7.265625 5.519531 -7.082031 6.21875 -6.84375 C 6.425781 -6.769531 6.589844 -6.859375 6.648438 -7.066406 L 7.066406 -8.488281 C 7.140625 -8.703125 7.042969 -8.84375 6.851562 -8.902344 C 5.949219 -9.179688 4.992188 -9.328125 4.253906 -9.328125 C 2.507812 -9.328125 0.8125 -8.5 0.8125 -6.398438 C 0.8125 -5.101562 1.761719 -4.394531 2.757812 -3.867188 C 3.851562 -3.300781 5.027344 -3.003906 5.027344 -2.5 C 5.027344 -1.984375 4.589844 -1.816406 3.980469 -1.816406 C 3.382812 -1.816406 2.582031 -1.972656 1.792969 -2.222656 C 1.570312 -2.285156 1.441406 -2.222656 1.367188 -2.023438 L 0.898438 -0.609375 C 0.832031 -0.417969 0.898438 -0.246094 1.136719 -0.1875 C 2.179688 0.0664062 3.085938 0.199219 3.957031 0.199219 Z M 3.957031 0.199219 "/></g></g></g><g fill="#6868ff" fill-opacity="1"><g transform="translate(67.170928, 20.133367)"><g><path d="M 2.960938 0.199219 C 3.875 0.199219 4.640625 -0.527344 4.640625 -1.480469 C 4.640625 -2.402344 3.898438 -3.167969 2.960938 -3.167969 C 2.03125 -3.167969 1.285156 -2.386719 1.285156 -1.480469 C 1.285156 -0.550781 2.039062 0.199219 2.960938 0.199219 Z M 2.960938 0.199219 "/></g></g></g><g fill="#6868ff" fill-opacity="1"><g transform="translate(73.102298, 20.133367)"><g><path d="M 3.742188 0 C 3.957031 0 4.082031 -0.113281 4.082031 -0.335938 L 4.082031 -6.039062 L 7.273438 -2.089844 C 7.421875 -1.898438 7.59375 -1.898438 7.742188 -2.089844 L 10.957031 -6.0625 L 10.957031 -0.335938 C 10.957031 -0.113281 11.082031 0 11.296875 0 L 13.433594 0 C 13.65625 0 13.769531 -0.113281 13.769531 -0.335938 L 13.769531 -12.355469 C 13.769531 -12.980469 13.335938 -13.128906 12.949219 -12.636719 L 7.503906 -5.652344 L 2.089844 -12.636719 C 1.695312 -13.144531 1.265625 -12.980469 1.265625 -12.355469 L 1.265625 -0.335938 C 1.265625 -0.113281 1.382812 0 1.605469 0 Z M 3.742188 0 "/></g></g><g transform="translate(88.140502, 20.133367)"><g><path d="M 5.675781 0.199219 C 8.5625 0.199219 10.660156 -1.777344 10.660156 -4.566406 C 10.660156 -7.355469 8.5625 -9.328125 5.675781 -9.328125 C 2.820312 -9.328125 0.722656 -7.355469 0.722656 -4.566406 C 0.722656 -1.777344 2.820312 0.199219 5.675781 0.199219 Z M 5.675781 -2.082031 C 4.277344 -2.082031 3.339844 -3.160156 3.339844 -4.566406 C 3.339844 -5.980469 4.277344 -7.050781 5.675781 -7.050781 C 7.117188 -7.050781 8.046875 -5.980469 8.046875 -4.566406 C 8.046875 -3.160156 7.117188 -2.082031 5.675781 -2.082031 Z M 5.675781 -2.082031 "/></g></g><g transform="translate(99.5261, 20.133367)"><g><path d="M 6.605469 -9.328125 C 5.542969 -9.328125 4.394531 -8.941406 3.390625 -8.003906 L 3.125 -8.84375 C 3.058594 -9.03125 2.945312 -9.132812 2.757812 -9.132812 L 1.480469 -9.132812 C 1.265625 -9.132812 1.144531 -9.015625 1.144531 -8.792969 L 1.144531 -0.335938 C 1.144531 -0.113281 1.265625 0 1.480469 0 L 3.4375 0 C 3.652344 0 3.777344 -0.113281 3.777344 -0.335938 L 3.777344 -5.101562 C 3.777344 -6.269531 4.566406 -7.089844 5.667969 -7.089844 C 6.785156 -7.089844 7.394531 -6.226562 7.394531 -5.109375 L 7.394531 -0.335938 C 7.394531 -0.113281 7.511719 0 7.734375 0 L 9.683594 0 C 9.90625 0 10.019531 -0.113281 10.019531 -0.335938 L 10.019531 -5.578125 C 10.019531 -7.214844 9.335938 -9.328125 6.605469 -9.328125 Z M 6.605469 -9.328125 "/></g></g><g transform="translate(110.599088, 20.133367)"><g><path d="M 5.339844 -9.328125 C 2.699219 -9.328125 0.757812 -7.484375 0.757812 -4.566406 C 0.757812 -1.597656 2.886719 0.199219 5.480469 0.199219 C 6.746094 0.199219 8.054688 -0.246094 9.164062 -1.136719 C 9.371094 -1.300781 9.402344 -1.472656 9.253906 -1.621094 L 8.269531 -2.863281 C 8.128906 -3.011719 7.996094 -3.019531 7.816406 -2.886719 C 7.109375 -2.335938 6.308594 -2.039062 5.5625 -2.039062 C 4.410156 -2.039062 3.339844 -2.757812 3.28125 -4.171875 L 9.417969 -4.171875 C 9.714844 -4.171875 9.804688 -4.292969 9.804688 -4.597656 C 9.804688 -7.484375 7.996094 -9.328125 5.339844 -9.328125 Z M 5.40625 -7.273438 C 6.160156 -7.273438 6.953125 -6.910156 7.15625 -5.875 L 3.4375 -5.875 C 3.734375 -6.925781 4.671875 -7.273438 5.40625 -7.273438 Z M 5.40625 -7.273438 "/></g></g><g transform="translate(121.129121, 20.133367)"><g><path d="M 7.535156 -9.132812 C 7.339844 -9.132812 7.214844 -9.066406 7.132812 -8.875 L 5.199219 -4.523438 L 3.09375 -8.875 C 3.011719 -9.050781 2.878906 -9.132812 2.699219 -9.132812 L 0.625 -9.132812 C 0.363281 -9.132812 0.269531 -8.96875 0.378906 -8.726562 L 3.867188 -1.710938 L 1.324219 3.363281 C 1.210938 3.601562 1.316406 3.769531 1.5625 3.769531 L 3.578125 3.769531 C 3.757812 3.769531 3.898438 3.675781 3.972656 3.511719 L 9.878906 -8.726562 C 9.996094 -8.96875 9.878906 -9.132812 9.640625 -9.132812 Z M 7.535156 -9.132812 "/></g></g></g></svg>